<?xml version="1.0" standalone="no"?>
<!DOCTYPE svg PUBLIC "-//W3C//DTD SVG 20010904//EN"
 "http://www.w3.org/TR/2001/REC-SVG-20010904/DTD/svg10.dtd">
<svg version="1.0" xmlns="http://www.w3.org/2000/svg"
 width="1920.000000pt" height="1230.000000pt" viewBox="0 0 1920.000000 1230.000000"
 preserveAspectRatio="xMidYMid meet">
<metadata>
Created by potrace 1.15, written by Peter Selinger 2001-2017
</metadata>
<g transform="translate(0.000000,1230.000000) scale(0.100000,-0.100000)"
fill="#000000" stroke="none">
<path d="M0 6150 l0 -6150 9600 0 9600 0 0 6150 0 6150 -9600 0 -9600 0 0
-6150z m7564 3713 c12 -3 16 -1 12 6 -9 14 -10 14 59 -10 53 -19 60 -19 71 -5
6 9 19 16 27 16 27 0 110 -21 147 -38 19 -9 41 -14 48 -13 8 1 21 -4 30 -12
10 -7 37 -19 62 -26 53 -16 100 -47 100 -67 0 -17 20 -19 20 -1 0 6 5 4 11 -7
7 -11 8 -21 2 -25 -16 -10 5 -74 23 -67 9 4 19 -5 28 -27 l14 -32 2 30 c1 17
1 41 0 55 l-2 25 26 -24 c26 -25 37 -53 13 -32 -15 12 -27 5 -27 -15 0 -6 10
-14 23 -18 31 -7 54 -45 35 -58 -10 -7 -8 -8 5 -4 11 3 20 0 24 -10 3 -8 11
-13 18 -10 12 4 24 -10 21 -25 0 -4 7 -16 17 -26 9 -11 14 -22 11 -26 -3 -3 2
-3 13 -1 10 3 27 -2 38 -10 11 -9 14 -16 8 -16 -17 0 -16 -18 2 -36 10 -10 14
-34 14 -75 -1 -61 3 -74 24 -74 7 0 11 -11 10 -23 -3 -19 1 -22 25 -20 23 3
27 -1 27 -22 0 -14 5 -28 10 -32 6 -4 2 -8 -7 -8 -10 0 -18 -4 -18 -9 0 -5 -9
-7 -20 -4 -17 5 -20 0 -20 -26 0 -33 30 -71 56 -71 10 0 14 -6 10 -15 -3 -8
-3 -15 0 -15 13 0 23 53 14 70 -6 11 -6 21 -1 25 5 3 12 -3 14 -12 3 -13 5
-12 6 5 1 32 17 19 25 -20 5 -24 9 -29 18 -20 16 16 28 15 28 -3 0 -9 7 -18
15 -21 8 -4 12 -11 8 -17 -3 -5 -7 -26 -9 -46 -2 -20 -6 -46 -9 -58 -3 -13 -1
-23 5 -23 5 0 10 10 10 21 0 17 3 19 14 10 12 -10 19 -6 37 18 27 36 43 40 33
9 -4 -13 -6 -38 -5 -55 1 -26 -2 -33 -17 -33 -10 0 -23 -5 -29 -11 -7 -7 -17
-8 -25 -3 -7 5 -22 8 -32 9 -19 0 -31 30 -17 40 13 7 0 64 -13 59 -7 -3 -23 8
-36 23 l-25 28 -6 -60 c-3 -33 -9 -68 -13 -77 -10 -22 -30 -24 -22 -2 3 9 3
21 -1 27 -4 7 -9 20 -10 30 -2 10 -10 28 -18 41 -19 28 -29 184 -13 203 7 9 7
17 -3 29 -11 14 -14 13 -24 -7 -8 -14 -15 -18 -19 -10 -4 6 -4 16 -1 21 3 6
-2 14 -12 18 -15 5 -18 13 -12 32 l7 25 1 -24 c1 -19 4 -22 12 -14 11 11 16
92 8 123 -6 24 -23 31 -31 12 -5 -14 -7 -13 -7 6 -1 23 -26 31 -34 10 -4 -10
-8 -10 -15 1 -8 11 -11 11 -18 0 -6 -10 -10 -4 -14 20 -5 36 -30 55 -31 24 0
-14 -2 -13 -10 6 -5 13 -12 22 -14 19 -8 -7 16 -68 26 -68 5 0 9 -9 9 -19 0
-24 30 -37 31 -13 1 9 6 0 11 -20 8 -31 7 -41 -7 -54 -18 -18 -17 -18 -34 14
-20 38 -24 18 -5 -22 13 -25 20 -32 26 -24 6 9 8 4 6 -12 -3 -17 5 -34 24 -53
15 -15 28 -33 28 -40 0 -21 12 -28 27 -16 10 9 13 8 13 -5 0 -10 5 -14 10 -11
6 3 10 1 10 -4 0 -6 -4 -11 -8 -11 -5 0 -6 -14 -4 -32 4 -25 2 -30 -11 -25
-11 4 -15 0 -15 -11 1 -9 -2 -27 -6 -39 -5 -14 -3 -23 3 -23 6 0 11 9 11 20 0
24 13 26 30 5 8 -10 10 -31 5 -65 -7 -52 -25 -79 -25 -38 0 13 -4 19 -8 13 -8
-12 -47 -13 -58 -2 -14 14 -22 7 -29 -23 -4 -20 -13 -31 -26 -31 -10 -1 -24
-2 -31 -3 -6 -1 -16 15 -21 34 -10 34 -10 34 -16 10 -5 -16 -14 -25 -26 -25
-21 0 -21 -4 -9 -75 6 -39 -14 -77 -37 -68 -19 7 -20 92 -1 94 6 1 15 2 20 3
8 1 -69 50 -80 51 -5 0 -8 -10 -8 -22 0 -33 -11 -44 -47 -51 -22 -4 -37 -2
-48 9 -8 8 -19 13 -24 10 -5 -4 -11 -1 -13 6 -3 7 -17 -1 -38 -20 -25 -24 -42
-32 -70 -32 -32 0 -38 4 -50 35 -8 20 -20 41 -27 47 -7 6 -13 21 -13 33 0 17
-7 24 -27 28 -37 7 -38 4 -17 -31 9 -16 14 -37 11 -46 -8 -20 -47 -21 -47 -2
0 18 -13 22 -73 25 -42 2 -48 -1 -59 -24 -7 -17 -17 -24 -28 -20 -9 3 -25 -3
-35 -15 -10 -11 -25 -20 -33 -20 -13 0 -13 -3 1 -18 24 -26 21 -29 -14 -24
-17 2 -33 12 -36 21 -2 9 -10 27 -17 41 -8 14 -11 31 -9 38 3 6 0 12 -6 12 -7
0 -16 11 -21 24 -5 13 -19 25 -33 28 -24 5 -24 3 -14 -21 7 -14 19 -31 27 -38
28 -23 -9 -14 -50 12 -22 14 -42 25 -44 25 -3 0 -6 -12 -8 -26 -2 -21 -9 -28
-30 -30 -22 -2 -26 1 -23 22 1 13 -6 31 -16 40 -17 16 -20 15 -36 -5 l-18 -21
-35 22 c-37 23 -41 25 -66 27 -13 1 -14 4 -4 16 10 13 9 15 -10 15 -13 0 -20
5 -17 13 2 7 18 11 38 10 34 -2 34 -2 5 7 -15 5 -37 17 -47 26 -12 11 -19 13
-19 5 0 -7 -5 -9 -11 -6 -6 4 -8 14 -5 22 5 11 2 13 -10 9 -17 -6 -98 27 -110
45 -4 8 0 8 15 0 25 -14 26 -10 5 31 -14 27 -14 30 -1 25 10 -4 17 2 21 15 4
16 8 19 18 11 7 -6 45 -22 84 -38 57 -22 75 -25 92 -16 29 15 37 14 22 -4 -11
-13 -7 -15 26 -15 37 1 38 1 16 13 -16 9 -19 16 -11 24 7 7 -4 12 -39 15 -53
5 -58 8 -133 83 -35 35 -45 51 -34 53 24 5 -19 58 -66 81 l-39 19 -2 -21 c0
-12 -1 -28 -1 -35 1 -8 -6 -10 -18 -7 -29 10 -23 -1 16 -25 38 -23 38 -40 1
-40 -21 0 -116 55 -116 67 0 3 11 3 25 1 31 -6 33 7 3 23 -25 14 -52 38 -47
43 2 2 13 8 23 13 19 10 18 11 -2 22 -29 15 -28 31 1 24 21 -6 21 -6 -3 15
-14 12 -20 21 -13 22 6 0 9 9 6 21 -5 19 -3 21 25 15 16 -4 33 -3 36 2 6 10
-57 27 -87 23 -9 -1 -29 7 -43 18 -25 19 -25 21 -6 21 11 0 24 -4 27 -10 3 -5
15 -10 26 -10 10 0 19 5 19 10 0 6 -8 10 -17 10 -22 0 -92 33 -93 44 0 4 7 6
15 2 23 -8 80 5 63 15 -10 7 -9 9 5 9 9 0 17 6 17 14 0 8 6 17 13 19 6 3 2 6
-10 6 -12 1 -25 6 -29 13 -5 8 7 10 45 5 32 -4 49 -2 46 3 -4 6 4 10 17 10 19
0 20 2 8 11 -11 8 -12 12 -2 16 6 2 10 9 6 14 -6 11 38 29 72 29 13 0 32 9 41
20 10 11 26 20 36 20 10 0 39 11 64 25 28 16 52 23 65 19 11 -3 30 -2 42 4 38
18 99 31 196 43 52 6 97 13 100 16 6 6 176 -6 204 -14z m-839 -1111 c20 -19
78 -51 125 -69 14 -6 51 -22 82 -37 32 -15 63 -24 69 -20 7 4 9 3 5 -4 -3 -6
-2 -13 4 -17 5 -3 10 -18 10 -33 0 -20 3 -23 12 -14 10 10 10 17 0 32 -10 17
-10 20 2 20 8 0 18 -5 21 -11 4 -5 19 -7 35 -4 25 5 29 2 45 -37 10 -24 17
-58 16 -75 -1 -18 3 -33 9 -33 5 0 10 -4 10 -9 0 -6 12 -23 26 -38 14 -15 30
-39 35 -52 6 -15 15 -21 24 -17 8 3 26 0 40 -6 17 -8 42 -8 85 -1 33 5 63 6
66 1 3 -4 25 -8 50 -8 28 0 44 -4 44 -12 0 -18 63 -15 68 3 11 42 12 43 27 23
19 -25 19 -42 0 -60 -8 -9 -15 -19 -15 -24 0 -4 7 -10 15 -14 9 -3 15 0 15 9
0 8 5 15 10 15 6 0 10 6 10 14 0 8 6 16 13 19 15 5 17 -58 4 -81 -9 -13 -1
-32 12 -32 5 0 16 20 25 44 9 25 24 50 32 56 12 10 14 8 14 -17 0 -16 3 -32 6
-36 11 -10 47 31 38 44 -5 8 -2 11 8 7 8 -4 21 -2 29 3 11 7 10 9 -4 9 -10 0
-15 5 -12 11 4 5 -1 19 -11 30 -16 18 -16 19 4 19 15 0 22 -6 22 -20 0 -13 5
-18 15 -14 8 4 15 12 15 20 0 27 77 -22 89 -57 l11 -31 25 30 c28 33 32 52 11
52 -30 0 -35 67 -8 112 13 22 13 29 3 42 -8 9 -9 16 -3 16 5 0 12 -7 16 -15 9
-23 55 -14 90 18 29 28 35 29 119 29 82 0 88 2 84 19 -8 31 7 30 77 -5 38 -19
76 -32 87 -29 14 4 19 0 19 -16 0 -15 -5 -19 -17 -14 -10 3 9 -20 42 -52 33
-31 79 -75 102 -97 l42 -40 -21 57 c-11 31 -18 58 -16 60 9 9 89 -75 82 -86
-4 -7 0 -9 12 -5 15 5 19 0 21 -20 0 -15 6 -30 13 -34 6 -4 10 -13 8 -21 -2
-8 4 -13 14 -13 10 1 14 -4 11 -12 -3 -8 0 -14 6 -14 6 0 11 -8 11 -18 0 -10
9 -28 21 -40 11 -12 17 -26 14 -31 -3 -5 -1 -12 4 -16 5 -3 9 -14 8 -25 -1
-14 -4 -16 -14 -8 -10 8 -13 5 -13 -12 0 -27 -9 -22 -15 9 -2 12 -11 28 -19
37 -9 8 -16 18 -16 22 0 4 -14 15 -30 24 -29 16 -30 16 -27 -2 2 -11 11 -28
20 -38 18 -20 23 -42 8 -42 -24 0 -18 -35 13 -80 20 -29 36 -68 41 -97 4 -26
11 -56 17 -67 7 -12 6 -22 -1 -29 -16 -16 -41 -17 -42 -1 -6 66 -38 108 -91
120 -17 3 -40 14 -51 24 -13 13 -26 16 -40 11 -27 -10 -109 7 -123 25 -6 8
-19 12 -28 8 -11 -4 -16 -1 -16 14 0 16 -6 19 -37 19 -27 -1 -46 6 -66 23 -16
14 -32 25 -35 26 -29 3 -90 18 -104 26 -15 7 -18 4 -18 -15 0 -18 8 -28 33
-38 39 -16 57 -33 57 -54 0 -8 12 -20 28 -26 15 -7 22 -13 15 -16 -7 -3 -13
-9 -13 -14 0 -6 6 -9 13 -8 42 5 46 -1 21 -28 -13 -14 -21 -29 -16 -32 13 -9
9 -51 -5 -51 -8 0 -16 -7 -19 -15 -4 -8 -15 -15 -25 -15 -10 0 -19 -4 -19 -8
0 -11 -136 4 -192 21 -26 8 -49 13 -52 10 -8 -8 -65 27 -76 46 -5 11 -10 29
-10 41 0 21 -27 57 -36 47 -3 -2 5 -28 16 -58 18 -45 19 -57 9 -79 -7 -14 -11
-33 -10 -44 2 -10 -2 -15 -7 -12 -12 7 -26 -29 -18 -43 3 -5 -3 -11 -14 -14
-17 -4 -30 -37 -14 -37 14 0 64 57 64 72 0 27 27 21 34 -7 4 -14 13 -25 21
-25 8 0 14 3 13 8 -4 18 16 63 32 72 25 14 30 13 30 -6 0 -13 3 -14 14 -5 15
12 110 -3 133 -21 7 -5 16 -7 21 -4 15 9 42 -17 51 -51 9 -31 -1 -54 -14 -33
-13 21 -21 9 -23 -34 -2 -52 20 -80 37 -47 6 11 11 28 11 38 1 15 5 13 23 -9
26 -32 54 -39 38 -10 -7 13 -2 25 19 49 16 17 31 29 34 25 4 -3 27 -7 52 -7
25 -1 49 -7 52 -12 4 -6 22 -14 41 -18 23 -5 31 -4 27 4 -11 16 15 13 28 -3 6
-8 29 -16 51 -18 37 -3 40 -1 45 27 7 42 59 52 115 23 27 -14 59 -21 97 -21
31 0 55 -4 52 -8 -7 -12 15 -22 33 -15 12 5 13 9 3 21 -10 13 -9 15 9 15 12 0
20 4 16 9 -3 5 -1 12 5 16 18 11 11 27 -10 20 -11 -4 -20 -2 -20 4 0 6 3 11 8
12 31 3 47 10 56 26 13 23 15 74 3 91 -6 8 -6 12 2 12 18 0 13 18 -6 23 -15 4
-15 6 5 12 20 7 31 25 14 25 -11 0 -34 58 -27 70 3 5 2 10 -3 10 -6 0 -13 19
-16 43 -7 55 -10 66 -24 101 -30 71 21 44 278 -149 19 -14 62 -46 95 -70 90
-66 159 -126 185 -162 12 -18 27 -33 33 -33 17 0 107 -92 107 -110 0 -9 13
-31 30 -50 16 -19 29 -42 29 -50 1 -9 -2 -11 -7 -4 -7 11 -42 27 -42 19 0 -7
32 -65 54 -97 10 -15 28 -30 39 -34 12 -4 30 -16 39 -26 9 -11 22 -17 28 -13
6 3 9 2 8 -3 -2 -6 24 -38 58 -73 65 -68 112 -145 92 -151 -14 -5 12 -55 46
-87 16 -16 24 -31 21 -42 -3 -10 0 -21 6 -25 9 -5 10 -2 5 12 -4 12 2 9 19
-10 14 -16 24 -34 22 -40 -2 -6 11 -35 30 -64 18 -29 34 -58 36 -65 1 -7 6
-15 10 -18 4 -3 4 -15 0 -26 -7 -18 -15 -12 -67 51 -32 39 -86 100 -120 136
-52 56 -57 59 -36 25 13 -22 34 -53 45 -70 49 -67 86 -145 80 -165 -5 -16 -3
-19 11 -13 14 5 16 3 11 -11 -4 -11 -3 -15 4 -11 6 4 9 1 7 -6 -4 -20 24 -102
31 -90 4 5 11 -5 17 -24 6 -19 7 -32 3 -29 -11 7 17 -48 29 -55 11 -8 68 -183
77 -238 4 -24 11 -43 17 -43 5 0 6 -9 3 -21 -4 -12 -2 -47 4 -78 17 -91 20
-163 6 -151 -17 14 -26 1 -19 -27 4 -13 1 -30 -6 -38 -10 -12 -9 -16 4 -21 11
-4 15 -13 11 -22 -3 -9 -3 -13 1 -10 9 10 32 -15 27 -28 -2 -7 1 -15 6 -19 6
-3 9 -10 6 -14 -2 -5 7 -20 21 -34 l26 -26 -28 -7 -27 -7 25 -13 c14 -7 28
-21 32 -29 4 -10 2 -14 -6 -9 -7 5 -9 -1 -6 -20 3 -14 1 -29 -3 -32 -5 -3 -4
-14 1 -25 7 -13 7 -19 0 -19 -5 0 -10 -11 -10 -25 0 -17 -6 -25 -17 -25 -16
-1 -16 -2 2 -16 11 -8 20 -19 20 -25 0 -5 7 -14 15 -20 12 -9 10 -10 -8 -6
-20 5 -21 3 -10 -10 12 -14 11 -15 -9 -5 -12 7 -26 12 -32 12 -22 0 -10 -17
24 -36 19 -10 35 -22 35 -27 0 -4 -4 -5 -10 -2 -5 3 -10 1 -10 -4 0 -6 -10
-11 -22 -11 -20 0 -20 -1 -5 -18 20 -22 22 -37 5 -25 -19 12 -82 33 -86 29 -2
-2 15 -14 38 -27 30 -17 40 -29 38 -44 -1 -11 1 -25 4 -31 5 -7 -12 -16 -42
-24 -47 -13 -49 -14 -33 -32 22 -25 -2 -23 -27 2 -25 25 -34 25 -27 1 3 -14 1
-18 -9 -14 -8 3 -14 2 -14 -2 0 -11 23 -50 34 -57 8 -5 7 -8 -1 -8 -7 0 -13
-9 -13 -20 0 -14 -5 -18 -17 -13 -16 6 -16 5 1 -12 13 -14 21 -16 23 -8 3 9
11 8 29 -4 20 -13 23 -13 19 -1 -4 9 7 24 29 39 21 14 36 32 36 44 0 16 3 14
16 -10 53 -96 72 -139 67 -151 -5 -13 22 -60 47 -82 13 -11 12 -11 -7 -3 -42
21 -47 11 -8 -16 29 -20 35 -28 23 -31 -9 -2 -30 4 -47 13 -41 21 -39 6 7 -42
20 -22 56 -61 80 -86 24 -26 50 -47 58 -47 8 0 14 -10 14 -25 0 -14 4 -25 9
-25 5 0 20 -17 32 -37 17 -26 19 -38 10 -41 -9 -3 -7 -9 5 -24 16 -16 16 -21
4 -28 -12 -8 -10 -10 8 -10 13 0 22 -6 22 -15 0 -8 4 -15 9 -15 5 0 26 -28 45
-62 44 -77 59 -101 66 -108 17 -17 78 -136 120 -235 12 -27 28 -62 36 -77 8
-14 14 -32 13 -40 0 -7 -4 -4 -9 7 -7 16 -9 17 -9 3 -1 -27 10 -48 23 -41 6 4
5 0 -2 -9 -11 -14 -11 -18 0 -25 18 -11 18 -205 0 -216 -6 -4 -17 -5 -22 -2
-6 4 -10 -8 -10 -27 -1 -27 -2 -30 -11 -16 -6 11 -6 24 -1 35 5 10 7 24 5 30
-9 24 -63 74 -73 68 -5 -3 -10 2 -10 13 0 12 -9 22 -21 25 -16 4 -19 2 -14
-10 3 -9 2 -19 -4 -22 -5 -3 -6 -27 -1 -54 6 -44 5 -48 -11 -44 -25 7 -36 -29
-16 -51 14 -15 37 -164 37 -237 0 -29 -21 -30 -34 0 -8 18 -9 18 -13 2 -3 -10
-12 -16 -21 -15 -13 2 -19 -7 -23 -37 -7 -47 -11 -25 -13 79 -1 62 -3 70 -23
77 -24 9 -26 4 -26 -53 0 -10 -3 -18 -8 -18 -4 0 -12 8 -18 18 -7 13 -9 7 -7
-23 2 -21 9 -41 15 -43 6 -2 11 -20 11 -39 l0 -35 -20 23 -19 24 -2 -25 c-1
-17 -4 -11 -10 17 -4 23 -5 55 -1 70 11 41 4 77 -18 91 -16 10 -20 10 -20 -1
0 -7 5 -18 11 -24 16 -16 1 -57 -15 -44 -7 6 -16 8 -19 4 -4 -3 -7 -1 -7 5 0
24 -19 11 -22 -15 l-3 -28 -21 33 -21 33 -6 -44 c-7 -53 -55 -208 -69 -222 -6
-7 -7 0 -3 20 6 27 5 26 -15 -10 -48 -87 -61 -104 -80 -102 -17 1 -18 3 -5 17
8 8 17 36 20 60 6 42 5 44 -9 26 -12 -15 -16 -16 -17 -5 0 8 -9 -4 -20 -26
-22 -48 -24 -38 -5 33 8 28 13 52 11 52 -2 0 -17 -24 -33 -52 -30 -53 -112
-142 -112 -122 0 6 9 19 20 29 11 10 18 20 16 23 -3 2 -13 -3 -22 -12 -9 -10
-22 -15 -28 -13 -7 3 -25 -15 -40 -39 -15 -24 -32 -44 -38 -44 -10 0 -3 16 20
42 7 9 11 22 6 29 -4 8 -3 10 4 5 7 -4 12 -3 12 2 0 5 11 22 25 38 31 36 31
42 0 41 -21 0 -23 -2 -14 -13 10 -12 9 -13 -5 -8 -20 8 -21 41 -1 41 8 0 15
-4 15 -9 0 -5 5 -6 10 -3 15 9 2 25 -21 25 -10 0 -19 5 -19 11 0 5 5 7 11 3
13 -8 3 64 -11 81 -5 6 -11 46 -15 90 -8 86 -24 136 -25 75 0 -46 -10 -81 -20
-75 -5 3 -15 -2 -24 -10 -9 -10 -17 -11 -21 -5 -9 15 -25 2 -25 -21 0 -19 0
-19 -20 1 -11 11 -24 20 -30 20 -5 0 -11 15 -11 33 -2 27 -2 28 -6 7 -6 -34
-23 -50 -23 -23 0 12 -4 25 -10 28 -5 3 -10 20 -10 37 0 43 -10 29 -12 -16 -1
-37 -18 -30 -18 8 0 12 -5 16 -15 12 -11 -4 -15 1 -15 18 0 35 -22 136 -30
136 -3 0 -1 -26 5 -57 6 -32 9 -69 6 -83 -5 -27 -7 -23 -16 63 -4 31 -11 57
-17 57 -6 0 -8 -12 -4 -30 3 -19 2 -29 -4 -25 -6 3 -10 17 -10 30 0 13 -7 30
-15 39 -8 8 -15 20 -15 26 0 17 -31 73 -37 66 -3 -3 2 -22 12 -41 9 -20 14
-39 11 -42 -3 -4 -7 -4 -8 -2 -2 2 -14 25 -28 51 -28 54 -37 58 -15 6 17 -42
26 -108 14 -108 -5 0 -9 8 -9 18 0 9 -10 22 -22 27 -14 6 -24 20 -26 35 l-2
25 13 -24 c8 -13 17 -20 19 -15 8 14 -10 54 -27 60 -19 8 -20 24 -1 24 8 0 16
7 19 14 4 10 1 13 -8 10 -17 -7 -14 18 4 40 7 9 11 25 8 36 -3 11 -1 18 4 14
18 -11 9 12 -10 26 -11 7 -18 17 -15 22 3 4 -2 15 -10 24 -9 8 -16 11 -16 5 0
-21 -19 -11 -23 12 -2 12 -3 9 -2 -8 1 -16 5 -39 9 -50 5 -15 3 -14 -5 3 -7
12 -18 22 -26 22 -7 0 -12 3 -12 8 1 4 1 14 0 22 -1 12 -4 11 -12 -3 -6 -9 -8
-26 -4 -36 3 -11 1 -22 -5 -26 -6 -3 -10 3 -10 14 0 13 -6 21 -18 21 -21 0
-23 -48 -4 -93 15 -35 16 -30 -8 -57 -16 -18 -20 -20 -20 -7 0 11 -6 15 -17
11 -17 -5 -17 -5 0 6 9 6 15 16 11 21 -3 5 0 17 7 25 10 13 10 17 0 23 -7 5
-12 11 -12 15 1 3 0 18 0 34 -1 19 -3 21 -6 8 -4 -15 -7 -16 -14 -5 -7 11 -9
11 -9 -3 0 -10 6 -18 13 -19 6 0 2 -5 -11 -11 -25 -13 -42 -3 -46 27 -3 22
-45 41 -50 22 -16 -54 -15 -53 -41 -22 -13 17 -24 36 -25 43 0 6 -3 12 -8 12
-4 0 -6 -21 -5 -47 1 -27 0 -41 -3 -32 -3 10 -14 19 -25 22 -13 3 -19 14 -19
31 0 14 -4 26 -8 26 -5 0 -9 14 -9 31 0 17 -5 34 -11 38 -7 4 -8 12 -2 21 6 8
10 11 10 5 0 -5 4 -4 9 4 8 13 12 13 27 0 9 -8 23 -29 31 -46 19 -46 24 -41
16 14 -5 34 -3 44 6 39 9 -6 10 0 5 21 -7 26 -6 27 11 13 17 -14 17 -13 10 10
-4 14 -12 31 -18 38 -8 10 -4 12 19 8 28 -5 63 -40 64 -63 0 -7 5 -13 10 -13
14 0 13 13 -2 28 -9 9 -9 12 -1 12 7 0 14 -4 17 -9 3 -5 14 -7 25 -4 19 5 47
93 29 93 -5 0 -7 4 -4 9 4 5 1 22 -5 37 -8 22 -12 25 -19 14 -5 -8 -5 -17 -1
-20 4 -3 11 -25 15 -50 8 -48 -2 -47 -19 2 -14 42 -35 48 -35 11 0 -31 -22
-40 -47 -20 -9 6 -13 5 -13 -4 0 -10 -3 -10 -12 -1 -7 7 -12 39 -13 72 0 33
-3 60 -6 60 -10 0 -18 -94 -9 -103 8 -9 -9 -67 -20 -67 -10 0 1 225 11 235 7
7 10 5 9 -5 -4 -31 0 -51 10 -45 6 4 8 10 5 15 -3 5 -1 11 5 15 5 3 10 2 10
-4 0 -5 8 -12 18 -15 9 -3 23 -20 31 -38 19 -42 41 -66 41 -44 0 25 -17 60
-43 87 -19 20 -23 29 -14 38 9 9 9 16 -1 31 -7 12 -8 21 -2 25 17 10 11 35 -8
35 -10 0 -27 7 -38 15 -30 23 -34 18 -34 -34 0 -55 -8 -84 -20 -76 -5 3 -8
-19 -8 -48 0 -30 -4 -63 -10 -73 -10 -17 -11 -16 -11 11 0 17 3 62 7 102 6 58
5 70 -5 61 -7 -6 -13 -23 -13 -39 0 -15 -5 -31 -11 -35 -8 -4 -10 7 -8 39 2
26 0 43 -5 39 -5 -3 -7 2 -3 11 3 10 2 17 -3 17 -10 0 -15 -16 -25 -75 -4 -22
-10 -42 -14 -45 -3 -3 -17 -50 -30 -105 -13 -55 -27 -108 -32 -117 -5 -10 -9
-34 -9 -53 0 -19 -4 -35 -9 -35 -12 0 -22 43 -12 50 5 3 11 21 14 40 3 19 8
45 12 58 4 13 3 22 -3 22 -5 0 -23 -29 -38 -65 -20 -45 -34 -65 -46 -65 -16 0
-17 3 -6 23 7 12 16 24 19 27 7 6 19 61 25 115 2 27 -7 8 -29 -60 -19 -55 -39
-109 -45 -120 -11 -18 -11 -18 -12 8 0 15 7 41 15 57 8 16 12 35 9 43 -3 8 -1
18 5 22 16 9 13 42 -6 65 -13 14 -20 17 -30 8 -7 -6 -13 -16 -13 -23 0 -7 -22
-33 -50 -58 -28 -25 -50 -50 -50 -57 0 -7 -7 -10 -15 -6 -24 9 -17 -11 11 -33
l25 -20 -22 -22 -22 -22 5 21 c7 25 2 28 -16 9 -7 -7 -11 -19 -9 -27 4 -13 2
-13 -9 0 -7 9 -19 15 -25 14 -7 -1 -17 -2 -23 -3 -5 0 -7 -8 -4 -16 4 -8 10
-12 15 -9 5 3 6 11 3 17 -4 7 2 4 12 -6 17 -15 17 -19 4 -27 -21 -14 -55 -4
-84 25 -14 14 -31 25 -39 25 -8 0 -19 11 -25 25 -14 30 -2 33 16 5 7 -11 19
-20 27 -20 17 0 20 17 4 22 -13 4 -23 68 -10 68 5 0 16 -8 23 -17 7 -10 20
-18 28 -18 8 0 17 -11 21 -25 5 -21 7 -22 14 -8 4 11 1 24 -9 34 -22 21 -39
54 -32 62 3 3 6 0 6 -6 0 -7 5 -12 11 -12 6 0 9 8 7 17 -2 10 -10 18 -18 18
-11 0 -14 9 -12 34 2 20 0 31 -6 27 -11 -7 -52 44 -52 63 0 7 -8 11 -17 9 -14
-2 -18 4 -18 26 0 21 -6 31 -24 37 -20 8 -22 7 -16 -8 4 -10 11 -34 16 -53 7
-32 6 -33 -7 -16 -8 11 -14 25 -14 32 0 7 -5 16 -11 20 -8 5 -10 -1 -7 -20 3
-14 1 -26 -3 -26 -5 0 -9 -9 -9 -20 0 -21 -15 -27 -25 -9 -4 6 -13 8 -21 5 -8
-3 -14 -2 -14 2 0 4 -14 15 -30 24 -17 9 -30 13 -30 9 0 -10 50 -46 65 -46 15
-1 35 -15 35 -25 0 -10 -76 -6 -105 5 -20 8 -20 8 -1 -13 11 -12 27 -22 38
-22 10 0 18 -5 18 -11 0 -6 10 -19 23 -30 32 -27 8 -23 -35 6 -39 27 -53 31
-43 15 13 -21 -22 -9 -73 24 -71 47 -66 27 6 -23 31 -23 66 -48 77 -57 11 -9
27 -20 35 -24 8 -5 12 -12 8 -15 -7 -7 -56 23 -144 87 -35 26 -64 43 -64 38 0
-5 25 -28 56 -50 30 -23 58 -48 61 -55 2 -8 13 -17 24 -20 10 -4 19 -11 19
-16 0 -10 -12 -4 -60 28 -19 13 -17 8 10 -21 64 -70 -37 0 -140 97 -52 49 -70
61 -70 48 0 -6 46 -56 102 -111 55 -55 98 -103 95 -106 -3 -4 -52 38 -108 92
-194 188 -211 207 -198 214 8 6 5 11 -10 19 -17 10 -21 9 -21 -3 0 -16 40
-159 59 -211 l11 -30 -19 25 c-10 13 -25 42 -32 65 -15 49 -35 73 -24 30 4
-16 8 -34 9 -40 2 -5 7 -28 13 -50 22 -80 24 -97 13 -90 -5 3 -10 16 -10 28
l-1 22 -12 -22 c-10 -18 -12 -11 -14 55 -1 57 -7 88 -22 117 -12 21 -21 35
-22 30 -1 -21 -23 42 -27 79 -2 21 -8 48 -13 60 -17 39 7 -131 31 -223 12 -45
6 -49 -30 -23 -16 12 -34 22 -40 22 -5 0 -10 8 -11 18 -1 35 -11 104 -20 130
-6 18 -7 4 -3 -42 3 -38 8 -75 11 -83 3 -7 0 -13 -6 -13 -6 0 -11 9 -11 20 0
22 -15 27 -23 8 -3 -7 -6 -3 -7 10 -4 37 -5 40 -12 48 -5 4 -7 -13 -5 -37 2
-30 7 -44 18 -44 18 0 38 -17 32 -28 -2 -4 14 -25 36 -48 23 -22 41 -47 41
-56 0 -15 -2 -15 -18 0 -24 22 -36 22 -28 1 6 -15 4 -15 -11 -3 -10 8 -28 26
-41 42 -23 26 -52 36 -52 17 0 -5 7 -13 15 -17 26 -15 85 -107 73 -114 -6 -4
-7 -12 -4 -18 4 -6 5 -11 2 -11 -8 0 -40 63 -40 80 -1 8 -7 14 -14 12 -8 -1
-11 2 -7 8 3 5 0 10 -8 10 -20 0 -42 51 -26 61 9 5 7 19 -8 56 -11 26 -23 60
-27 76 -3 15 -13 27 -20 27 -8 0 -17 8 -19 18 -3 9 -3 -8 0 -38 3 -30 10 -63
15 -73 5 -10 7 -21 4 -24 -9 -9 -27 47 -37 112 -5 33 -13 85 -18 115 l-9 55
-2 -45 c-1 -25 -4 -37 -7 -27 -2 9 -11 17 -19 17 -8 0 -15 6 -15 13 -1 6 -5
-1 -9 -18 -6 -25 -8 -26 -9 -7 0 13 -8 37 -18 55 -15 29 -17 30 -23 12 -7 -17
-8 -16 -12 10 -4 24 -5 22 -7 -13 0 -27 3 -41 9 -37 6 3 10 -1 10 -10 0 -9 -4
-14 -9 -10 -5 3 -12 -3 -14 -12 -3 -13 -5 -11 -7 7 -2 21 -4 20 -10 -10 l-7
-35 -2 38 c-1 26 -5 37 -13 35 -16 -6 -23 -58 -8 -58 6 0 9 -4 5 -10 -3 -5
-12 -7 -21 -3 -8 3 -12 8 -10 11 3 3 1 11 -5 18 -6 8 -8 22 -5 31 5 15 4 15
-9 -1 -13 -17 -15 -17 -15 -3 0 11 -5 14 -15 10 -13 -4 -15 0 -11 21 5 28 0
31 -23 17 -8 -5 -20 -7 -27 -4 -11 4 -11 9 1 26 8 12 15 27 15 35 0 7 10 28
23 45 12 18 23 39 24 47 2 8 9 35 16 60 l14 45 7 -66 c7 -62 9 -67 31 -65 13
0 21 4 19 8 -3 4 -5 23 -6 43 -1 19 -5 35 -10 35 -13 0 -9 20 5 20 35 1 56 73
71 247 5 52 3 63 -9 63 -12 0 -15 15 -14 78 0 66 2 74 12 52 6 -14 16 -28 22
-32 6 -5 5 -8 -2 -8 -8 0 -13 -15 -13 -41 0 -25 4 -38 10 -34 6 4 8 11 5 16
-4 5 -1 9 4 9 6 0 11 19 11 43 0 40 13 67 32 67 4 0 9 -19 9 -42 1 -24 3 -35
6 -25 2 9 9 17 14 17 8 0 14 -58 12 -122 -1 -28 25 -47 38 -27 11 18 22 -48
14 -87 -3 -19 -13 -38 -21 -41 -18 -7 -18 -24 0 -48 13 -18 14 -18 10 10 -4
28 -4 28 7 8 6 -12 25 -25 42 -29 22 -4 26 -8 16 -15 -11 -7 -9 -9 7 -9 11 0
26 -6 33 -12 10 -11 11 -7 5 17 -8 35 -14 43 -46 59 -16 8 -24 22 -26 46 -5
46 7 102 19 94 6 -3 13 3 16 15 7 28 17 26 33 -6 14 -30 28 -15 14 15 -4 9 -6
20 -6 24 1 5 -1 7 -6 7 -29 -5 -42 3 -42 25 0 25 25 43 34 23 2 -7 5 -5 5 5 1
9 -4 18 -11 20 -9 3 -8 31 5 119 20 132 21 179 6 179 -5 0 -7 5 -4 10 3 6 1
10 -4 10 -14 0 -15 -37 -1 -42 6 -2 6 -18 0 -43 -5 -22 -10 -55 -10 -72 0 -33
-8 -38 -50 -34 -12 1 -11 -1 2 -9 16 -10 15 -14 -7 -57 -14 -25 -25 -57 -25
-70 0 -14 -4 -21 -10 -18 -5 3 -10 -1 -10 -9 0 -9 6 -15 13 -13 7 1 13 -10 15
-26 5 -42 -29 -32 -40 12 -10 37 -4 66 12 56 6 -4 10 5 10 20 0 14 5 34 11 44
8 11 9 28 4 47 l-9 29 -4 -27 c-2 -16 -8 -28 -13 -28 -5 0 -9 -12 -9 -27 0
-21 -3 -24 -12 -15 -8 8 -9 23 -1 56 8 38 8 43 -5 38 -11 -4 -14 -1 -9 12 4
11 3 15 -4 10 -6 -3 -8 -16 -5 -29 4 -15 1 -25 -8 -28 -18 -7 -25 20 -14 53 5
13 6 36 3 50 -7 25 -7 25 -22 5 -14 -19 -15 -19 -12 5 4 33 -37 157 -62 188
-10 14 -24 42 -29 63 -6 22 -15 39 -20 39 -15 0 -12 -27 6 -68 9 -21 22 -52
30 -70 19 -45 18 -55 -6 -42 -11 6 -20 17 -20 24 0 8 -9 33 -20 57 -23 53 -26
35 -5 -44 8 -32 15 -62 15 -67 0 -16 -49 15 -60 39 -6 13 -13 21 -16 18 -9 -9
7 -68 17 -61 12 7 11 -2 -3 -29 -11 -23 -16 -31 -43 -79 -9 -16 -13 -28 -11
-28 3 0 12 14 21 30 18 34 46 42 38 10 -7 -26 4 -26 26 1 16 20 16 19 18 -25
1 -25 -1 -46 -5 -46 -4 0 -6 -19 -6 -42 1 -24 -3 -49 -8 -55 -6 -7 -8 -13 -5
-13 5 0 -1 -26 -32 -135 -19 -66 -20 -68 -21 -30 l-1 40 -21 -25 c-20 -24 -21
-24 -15 -2 17 57 17 64 -3 30 -20 -38 -50 -51 -50 -23 0 8 -7 15 -15 15 -8 0
-15 5 -15 11 0 5 -4 8 -9 4 -13 -8 -1 -117 15 -136 8 -8 14 -22 15 -30 0 -8 3
-6 8 5 9 24 2 68 -10 60 -5 -3 -9 1 -9 9 0 18 39 11 41 -7 4 -47 -5 -103 -17
-112 -14 -12 -40 -122 -30 -131 3 -3 8 12 12 35 4 28 15 46 35 61 33 25 35 20
14 -39 -18 -50 -18 -50 -6 -50 5 0 14 14 21 30 7 17 16 30 21 30 12 0 11 -17
-1 -25 -5 -3 -10 -14 -10 -23 0 -9 -12 -39 -25 -67 -14 -27 -25 -57 -25 -66 0
-9 -10 -19 -22 -23 -22 -5 -22 -6 -4 -19 17 -12 17 -15 2 -29 -14 -15 -14 -18
-1 -32 19 -18 19 -50 0 -101 -8 -22 -14 -55 -15 -72 0 -18 -5 -33 -11 -33 -5
0 -7 -4 -4 -10 3 -5 2 -10 -3 -10 -14 0 -22 -38 -8 -44 6 -2 3 -5 -6 -5 -10
-1 -19 -13 -23 -30 -7 -34 -22 -48 -47 -48 -22 0 -23 6 -4 21 8 6 17 22 21 35
6 21 5 23 -14 18 -19 -5 -20 -3 -10 10 11 12 10 14 -2 13 -27 -4 -37 0 -42 20
-3 13 0 20 8 20 7 0 23 15 34 34 23 37 27 51 10 40 -6 -3 -15 -1 -19 6 -11 18
-30 3 -30 -25 0 -13 -6 -30 -14 -37 -21 -21 -48 -77 -41 -87 3 -5 -4 -7 -15
-4 -12 3 -20 0 -20 -6 0 -7 5 -9 10 -6 11 7 14 -8 3 -18 -3 -4 -12 1 -20 11
-8 9 -12 12 -9 6 3 -7 -13 -31 -35 -55 -38 -41 -39 -41 -16 -8 15 20 28 49 31
64 5 26 4 26 -13 11 -25 -23 -32 -20 -25 12 4 15 20 37 35 50 16 13 29 29 29
35 0 7 9 23 20 37 30 39 24 4 -10 -57 l-31 -54 31 23 c37 27 71 96 64 126 -6
21 7 72 31 128 44 98 85 197 82 200 -1 2 -22 -35 -46 -82 -40 -80 -64 -109
-42 -50 8 20 7 26 -3 26 -12 0 -11 26 2 83 1 4 2 43 2 87 0 47 4 80 10 80 6 0
10 -15 10 -32 1 -53 17 -12 25 62 14 131 17 250 6 250 -6 0 -11 -21 -11 -47
-1 -39 -3 -45 -11 -30 -17 28 7 227 30 250 6 6 11 16 11 21 0 6 -13 -5 -29
-24 -24 -28 -32 -33 -42 -22 -11 10 -11 24 0 73 12 61 8 87 -9 59 -6 -8 -10
-24 -10 -35 0 -17 -2 -17 -10 -5 -7 12 -10 8 -10 -15 0 -49 -19 -15 -24 44 -6
61 -25 94 -27 46 -1 -17 -1 -46 0 -66 4 -68 -16 -49 -28 26 -8 45 -17 73 -22
69 -12 -7 0 138 11 146 4 3 13 23 19 44 16 60 -10 26 -39 -49 -21 -55 -29
-128 -30 -257 0 -28 -4 -38 -16 -38 -8 0 -13 4 -10 9 3 5 -1 11 -9 15 -9 3
-15 19 -16 38 -1 18 -4 44 -8 58 l-7 25 -7 -25 c-3 -14 -3 -26 1 -28 4 -1 6
-27 5 -58 -3 -45 0 -54 10 -46 7 6 23 8 36 5 12 -3 19 -9 14 -12 -14 -11 -34
-51 -24 -51 5 0 12 8 15 17 5 13 9 14 15 5 6 -10 15 -10 35 -2 23 9 27 8 23
-4 -3 -8 0 -16 7 -19 17 -7 38 -77 23 -77 -6 0 -3 -6 7 -13 14 -10 16 -19 10
-33 -5 -10 -9 -28 -8 -39 0 -11 2 -36 3 -55 2 -51 21 -17 21 38 0 31 4 42 13
39 8 -3 11 -24 9 -68 -3 -81 -9 -110 -23 -106 -16 3 -17 -52 -2 -65 7 -6 14
-25 14 -42 l1 -31 8 30 c6 25 8 27 15 12 11 -25 -4 -169 -17 -161 -6 4 -8 22
-4 43 4 25 2 31 -4 21 -5 -8 -10 -31 -10 -50 -1 -19 -7 -60 -14 -90 -11 -46
-14 -51 -20 -32 -4 12 -7 39 -6 60 3 69 1 89 -10 72 -5 -8 -7 -52 -5 -98 3
-52 1 -81 -5 -77 -6 3 -10 15 -10 26 0 10 -7 19 -15 19 -17 0 -19 11 -6 25 11
13 22 205 12 205 -5 0 -12 -26 -16 -57 -4 -32 -12 -66 -17 -77 -5 -10 -11 -71
-13 -135 -1 -64 -5 -132 -9 -151 l-6 -35 14 35 14 35 1 -32 c1 -18 8 -36 16
-40 13 -8 11 -20 -12 -91 -30 -86 -52 -115 -28 -35 8 26 13 49 11 50 -8 9 -38
-91 -33 -113 2 -14 1 -41 -3 -59 -5 -22 -4 -35 3 -38 6 -2 -6 -30 -29 -65 -21
-33 -47 -75 -57 -93 -10 -17 -20 -29 -23 -26 -4 3 4 20 16 37 17 24 60 122 60
138 0 12 -40 -39 -51 -65 -19 -45 -29 -42 -17 5 5 20 10 57 9 81 0 24 6 53 14
64 8 12 15 31 14 42 0 16 -3 14 -15 -10 l-15 -30 5 30 c2 17 8 38 11 48 4 9 3
17 -3 17 -13 0 -36 -85 -27 -102 4 -7 0 -6 -9 3 -17 15 -17 20 -2 64 9 26 15
49 13 51 -2 2 -18 -25 -36 -61 -17 -37 -36 -63 -42 -60 -7 5 -7 11 1 19 13 17
51 122 57 164 3 18 9 35 14 38 5 3 9 16 9 29 0 12 6 25 14 28 8 3 15 24 18 51
4 51 -9 63 -18 16 -8 -35 -24 -40 -24 -7 0 18 -2 19 -10 7 -5 -8 -10 -25 -10
-38 0 -14 -4 -20 -10 -17 -6 4 -8 15 -5 26 4 11 2 19 -4 19 -6 0 -11 -12 -12
-27 0 -16 -4 -37 -9 -48 -7 -19 -8 -19 -15 -2 -6 14 -10 15 -21 6 -16 -13 -8
-33 8 -23 9 6 -28 -53 -42 -66 -11 -10 -69 -108 -110 -185 -38 -73 -86 -133
-97 -122 -6 7 73 169 130 265 27 46 47 86 44 89 -3 2 -27 -23 -54 -56 -56 -70
-80 -82 -28 -14 40 53 37 75 -4 26 -30 -36 -38 -40 -38 -19 0 8 3 14 6 13 4
-1 24 17 45 41 53 59 35 53 -43 -15 -36 -32 -58 -48 -48 -37 9 11 17 24 17 27
0 4 25 31 55 61 63 61 72 80 20 40 -19 -14 -35 -30 -35 -34 0 -3 -18 -22 -41
-40 -32 -26 -43 -30 -50 -19 -5 9 -2 20 9 32 10 11 18 14 20 7 5 -14 32 7 32
24 0 6 -4 4 -10 -4 -15 -24 -25 -2 -11 24 17 30 6 53 -16 34 -16 -13 -37 -57
-35 -70 1 -5 -3 -8 -9 -8 -6 0 -8 9 -4 20 6 18 3 20 -30 15 -36 -4 -37 -4 -22
18 49 76 59 127 14 72 -34 -41 -49 -40 -20 2 36 52 40 60 17 43 -10 -7 -37
-32 -58 -55 -33 -34 -36 -35 -21 -10 10 17 31 44 47 60 16 17 27 36 26 44 -2
8 18 35 44 59 44 41 61 68 38 60 -5 -1 -40 -32 -77 -68 -38 -36 -81 -76 -98
-90 -29 -25 -29 -25 5 20 l34 45 -39 -35 c-48 -44 -38 -25 37 68 32 39 54 72
50 72 -5 0 -38 -26 -73 -59 -51 -46 -67 -56 -76 -46 -9 10 -8 18 3 34 9 12 11
21 5 21 -6 0 -11 5 -11 11 0 6 7 8 16 5 12 -4 15 -2 10 9 -3 8 -1 15 3 15 5 0
12 -6 14 -12 3 -7 6 -3 6 10 1 13 5 21 10 18 7 -5 29 19 84 92 23 30 -13 7
-65 -42 -57 -53 -118 -102 -118 -93 0 2 18 24 41 48 48 52 74 88 67 94 -3 3
-16 -5 -31 -17 -43 -38 -105 -88 -110 -88 -3 0 -7 9 -10 20 -3 13 4 31 19 49
13 16 24 35 24 42 0 8 9 29 20 47 29 47 25 49 -20 8 -43 -39 -55 -44 -46 -21
7 19 1 19 -32 -2 l-27 -18 24 33 c12 18 25 47 28 64 l5 31 -37 -22 c-52 -30
-54 -20 -5 19 22 18 54 52 70 75 53 77 32 72 -30 -6 -26 -33 -38 -43 -37 -30
0 11 4 18 8 15 4 -2 9 2 12 10 5 11 -1 12 -31 4 -20 -6 -43 -15 -50 -21 -9 -7
-16 -7 -23 0 -8 8 6 19 44 37 53 25 92 66 85 88 -2 6 -22 -5 -44 -25 -37 -33
-41 -35 -52 -17 -9 14 -8 21 3 30 8 7 13 16 10 20 -3 5 0 12 5 15 11 7 20 27
35 75 l7 25 -21 -27 c-13 -16 -31 -28 -42 -28 -10 0 -19 -4 -19 -10 0 -5 -7
-6 -17 -3 -11 4 -14 3 -9 -5 4 -8 2 -10 -7 -6 -10 4 -15 -1 -14 -13 2 -12 -4
-17 -17 -15 -14 3 -17 -1 -12 -13 3 -9 6 -21 6 -26 0 -5 10 -9 23 -8 12 0 16
3 10 6 -15 6 10 49 38 64 25 13 24 -2 0 -28 -11 -12 -17 -23 -14 -27 12 -12
-20 -36 -40 -30 -12 4 -17 2 -13 -4 3 -6 3 -13 -2 -16 -13 -8 -28 113 -21 174
5 52 6 52 7 13 1 -24 6 -43 11 -43 11 0 20 83 10 90 -8 6 6 135 17 151 3 5 1
9 -5 9 -14 0 -36 -44 -51 -100 -12 -46 -33 -69 -62 -70 -12 0 -18 -8 -18 -22
0 -21 0 -21 15 -2 12 15 14 16 15 3 0 -31 30 -15 42 23 6 21 15 38 20 38 5 0
4 -9 -1 -19 -6 -10 -13 -41 -15 -67 -3 -27 -10 -50 -16 -52 -16 -6 -12 -42 5
-42 10 0 15 -10 15 -31 0 -17 -4 -28 -10 -24 -9 6 -14 -8 -11 -27 0 -5 -4 -8
-9 -8 -6 0 -10 17 -10 38 0 27 -3 33 -10 22 -5 -8 -7 -25 -4 -37 3 -12 1 -30
-5 -40 -8 -14 -10 -6 -11 40 0 35 -4 57 -11 57 -8 0 -9 -25 -4 -87 7 -85 2
-110 -9 -46 -3 17 -10 42 -15 55 -5 13 -5 33 0 46 5 12 6 22 4 22 -15 0 -23 3
-51 21 -17 10 -36 19 -42 19 -5 0 -13 -24 -17 -52 -6 -41 -10 -48 -16 -33 -7
20 -8 20 -8 -1 -1 -11 2 -24 6 -28 4 -4 8 -44 9 -89 2 -98 -14 -74 -23 35 -3
37 -10 65 -14 62 -5 -3 -7 -15 -5 -27 9 -42 17 -182 11 -175 -4 3 -9 26 -11
49 -6 47 -9 54 -27 54 -8 0 -13 24 -15 68 -3 61 -4 66 -18 52 -13 -12 -15 -36
-12 -124 2 -75 0 -107 -8 -104 -24 9 -48 263 -25 263 5 0 12 -8 14 -17 3 -10
5 1 6 25 0 24 5 41 10 38 11 -7 21 45 19 103 l-1 46 -7 -50 -7 -50 -1 50 c-1
49 16 116 17 71 1 -11 3 -17 6 -14 3 3 2 20 -1 38 l-7 33 -19 -47 c-11 -29
-16 -57 -12 -73 5 -18 3 -24 -4 -19 -7 4 -14 -4 -18 -21 -18 -80 -22 -88 -19
-33 5 71 10 95 28 150 34 100 46 150 36 155 -5 4 -9 -2 -9 -12 0 -10 -11 -51
-25 -91 -14 -40 -32 -105 -42 -143 -9 -38 -20 -69 -24 -69 -5 0 -4 11 1 25 6
14 6 25 0 25 -4 0 -11 -8 -14 -17 -3 -10 -3 4 -1 31 5 47 26 114 93 294 17 45
27 80 21 77 -5 -4 -9 -2 -9 4 0 5 5 13 10 16 6 3 10 11 10 18 0 21 -29 -28
-36 -60 -3 -18 -10 -30 -15 -27 -5 3 -6 17 -3 31 4 16 2 28 -7 34 -11 7 -11 9
3 9 12 0 16 8 16 33 -1 17 2 51 6 75 4 29 3 41 -4 37 -22 -14 -8 7 29 43 71
67 113 124 99 133 -9 6 -8 10 5 15 9 3 17 11 17 17 0 5 -9 2 -20 -8 -11 -10
-18 -21 -15 -24 5 -9 -4 -20 -38 -50 -32 -29 -37 -21 -5 9 12 11 18 23 15 27
-4 3 -18 -4 -32 -17 -14 -13 -25 -19 -25 -14 0 5 -14 -6 -30 -25 -17 -18 -30
-29 -30 -24 0 9 54 94 101 158 12 17 -6 1 -40 -34 -33 -36 -61 -58 -61 -49 0
8 9 23 20 33 11 10 20 23 20 28 0 6 -12 0 -27 -14 l-28 -24 24 27 c13 15 27
25 31 23 4 -3 15 4 24 14 13 15 14 20 4 24 -8 3 -5 6 6 6 26 1 15 11 -18 17
-16 3 -33 -1 -42 -11 -28 -27 -35 -16 -12 18 13 17 25 34 28 37 3 3 16 18 30
34 21 24 22 27 5 18 -11 -6 -35 -26 -54 -46 -38 -39 -63 -31 -35 12 8 12 12
28 8 35 -4 7 -4 9 1 5 5 -5 17 6 27 22 19 33 25 55 7 30 -9 -12 -9 -11 -4 5
19 52 23 83 10 78 -10 -3 -9 5 3 30 10 19 19 33 21 31 8 -8 33 38 38 69 3 18
9 37 14 43 5 6 6 20 3 30 -6 15 -4 17 6 7 11 -10 20 -5 47 25 18 20 33 40 33
44 0 14 46 50 103 81 55 29 57 31 36 39 -18 7 -20 11 -10 17 9 6 5 10 -14 15
-17 4 -35 2 -49 -7 -11 -8 -33 -17 -48 -20 -15 -4 -33 -13 -40 -20 -28 -26
-52 -42 -44 -29 6 10 1 11 -21 7 -27 -6 -27 -6 -9 9 11 9 28 16 39 16 10 0 15
5 12 10 -4 6 -11 8 -16 5 -5 -4 -9 -3 -9 2 1 13 67 83 79 83 16 0 13 29 -4 47
-9 8 -22 12 -30 9 -8 -3 -15 -2 -15 3 0 5 10 12 23 16 13 4 17 8 10 12 -16 6
-17 33 -3 33 6 0 13 -7 17 -16 4 -12 8 -13 14 -3 6 10 10 10 23 0 8 -7 21 -9
28 -5 10 6 9 3 -1 -9 -11 -14 -11 -17 0 -17 17 0 48 19 34 21 -5 0 10 6 35 13
l44 12 -22 22 -23 23 26 -7 c14 -3 36 -3 50 0 21 5 23 9 13 20 -7 8 -16 12
-20 9 -5 -2 -8 0 -8 5 0 17 -48 31 -79 22 -21 -6 -33 -5 -41 5 -16 19 14 39
50 31 37 -7 40 9 3 19 -15 3 -39 15 -55 26 -30 22 -37 16 -13 -11 30 -33 -31
-11 -62 22 -23 26 -24 29 -6 19 31 -16 51 -14 27 3 -12 8 -27 16 -35 18 -7 2
-22 12 -32 23 -10 11 -16 14 -12 8 4 -9 1 -11 -10 -7 -9 4 -14 12 -12 18 2 6
-2 24 -10 39 -15 30 -8 59 9 36 7 -10 8 -5 4 14 -10 42 1 32 25 -22 21 -51 43
-75 94 -107 l30 -19 -15 21 c-51 72 -78 102 -85 96 -5 -4 -5 -1 -1 6 4 6 2 12
-4 12 -6 0 -9 4 -6 9 3 5 -1 11 -9 15 -19 7 -19 22 1 30 8 3 12 2 9 -4 -3 -6
-2 -10 3 -10 5 0 14 -11 20 -24 6 -13 27 -47 48 -75 25 -37 40 -49 48 -42 6 5
17 6 25 2 7 -5 23 -7 37 -5 13 1 24 -2 24 -7 0 -6 5 -7 10 -4 6 3 10 1 10 -5
0 -7 6 -8 19 0 11 5 26 10 33 10 7 -1 1 -8 -15 -16 -19 -11 -32 -12 -46 -5
-14 8 -22 7 -31 -4 -14 -17 -5 -35 19 -35 22 0 86 47 86 63 0 15 76 58 89 50
5 -4 6 -1 1 6 -4 7 -16 11 -26 8 -11 -3 -19 -1 -19 4 0 4 -16 -1 -35 -12 -19
-12 -35 -17 -35 -11 0 5 24 22 54 38 30 16 53 31 50 35 -4 8 96 40 140 46 39
4 59 23 26 23 -18 0 -21 3 -12 9 8 4 13 12 12 17 0 5 7 10 17 12 15 3 15 1 3
-7 -29 -20 2 -25 49 -8 59 21 67 21 52 3 -10 -12 -8 -17 9 -26 13 -7 19 -17
16 -26 -4 -10 0 -15 12 -13 9 1 28 1 42 0 l24 -1 -22 -16 c-28 -19 -28 -28 0
-41 20 -9 20 -10 -13 -31 -41 -26 -27 -30 16 -4 17 10 42 21 58 24 22 4 27 2
27 -14 0 -14 5 -18 14 -15 11 4 13 1 9 -11 -6 -16 -5 -16 14 1 26 23 43 22 43
-3 0 -23 19 -26 39 -7 11 10 12 6 6 -22 -5 -23 -4 -31 4 -27 6 4 11 0 11 -8 0
-24 11 -19 55 24 42 42 58 50 49 26 -3 -8 6 -28 20 -43 14 -15 26 -34 26 -42
0 -23 27 6 50 55 12 24 26 44 31 44 5 0 9 5 9 11 0 5 -4 8 -8 5 -15 -9 -52 42
-45 61 7 17 1 14 -73 -47 -17 -13 -25 0 -13 22 17 31 2 34 -22 5 -11 -15 -25
-27 -31 -27 -6 0 -4 8 5 18 20 21 22 37 5 26 -8 -5 -9 -2 -5 9 8 22 -16 23
-33 2 -7 -8 -18 -15 -24 -15 -6 1 11 21 39 45 27 25 46 45 41 45 -5 0 -24 -14
-43 -31 -20 -17 -42 -28 -50 -25 -8 3 -19 6 -25 6 -5 0 -2 7 6 16 18 17 21 44
7 44 -6 0 -13 -4 -16 -10 -3 -5 -12 -10 -18 -9 -9 0 -9 2 1 6 6 2 12 12 12 21
0 12 -6 10 -26 -8 -21 -21 -27 -22 -34 -10 -5 8 -10 18 -10 22 0 9 29 38 38
38 4 0 13 10 21 21 l13 22 -30 -21 c-16 -12 -31 -19 -34 -16 -3 2 -11 -2 -18
-11 -7 -8 -17 -15 -23 -15 -17 0 44 59 86 83 20 11 37 27 37 34 0 7 4 13 8 13
5 0 17 7 28 15 17 13 16 14 -16 3 -36 -11 -81 -38 -66 -38 14 0 -24 -38 -58
-58 l-32 -19 1 23 c0 12 9 32 19 43 20 22 20 22 0 15 -17 -7 -18 -6 -4 11 14
19 14 19 -10 4 -14 -8 -38 -20 -54 -27 -25 -11 -28 -11 -17 1 6 8 25 20 42 27
16 7 28 15 25 17 -2 2 -23 -5 -46 -17 -52 -27 -61 -21 -20 14 32 27 20 37 -15
12 -23 -16 -85 -26 -85 -14 0 4 -7 8 -15 8 -8 0 -15 7 -15 15 0 15 49 45 75
45 8 0 15 8 15 18 0 13 2 14 9 3 5 -7 11 -9 14 -4 9 14 -20 46 -34 37 -8 -4
-10 -3 -5 4 4 7 17 12 29 12 12 0 29 5 37 10 18 11 4 13 -145 12 l-100 0 63
13 c68 13 91 25 49 25 -16 0 -27 6 -27 14 0 10 20 16 68 21 57 6 63 9 42 17
-14 5 -60 8 -103 6 -70 -3 -78 -1 -73 15 2 9 0 17 -6 17 -5 0 -6 5 -3 10 3 6
0 10 -9 10 -8 0 -16 5 -18 11 -3 8 -14 6 -37 -6 -25 -12 -36 -14 -45 -5 -13
13 8 30 37 30 44 0 6 24 -55 34 -24 4 -12 14 24 21 24 4 37 9 30 12 -23 9 -1
23 36 24 34 0 35 1 13 10 -13 5 -33 7 -43 3 -11 -3 -31 -2 -46 2 l-27 7 30 7
c28 7 27 8 -12 9 -44 1 -55 13 -27 29 14 8 63 3 132 -13 12 -3 22 -1 22 4 0 5
-17 12 -37 17 l-38 7 30 7 30 6 -37 7 c-24 5 -38 14 -38 23 0 8 6 14 13 12 6
-1 22 2 35 6 16 5 31 2 48 -9 14 -9 50 -19 79 -22 32 -3 53 -10 52 -17 -1 -6
10 -12 25 -14 21 -3 27 0 22 12 -4 10 2 16 18 18 13 2 -22 11 -77 21 -55 10
-113 20 -130 23 -16 3 -36 6 -42 6 -7 1 -13 12 -13 25 0 21 4 23 53 23 50 1
51 1 27 15 -14 8 -33 14 -42 15 -31 0 -19 17 13 18 39 1 50 11 22 18 -12 4
-29 17 -38 31 l-17 25 64 -7 c34 -4 70 -13 79 -21 22 -20 38 -17 36 6 -1 14
-14 24 -47 35 -25 8 -62 21 -84 29 l-39 13 48 8 c34 5 44 9 34 16 -10 6 -3 9
23 9 29 0 36 3 32 15 -4 8 -12 15 -20 15 -19 0 -70 51 -69 70 0 10 10 14 30
13 27 -2 28 -1 12 10 -53 35 -54 36 -19 37 18 0 49 -7 70 -15 33 -13 35 -13
18 0 -11 8 -23 15 -28 15 -4 0 -8 4 -8 8 0 5 13 7 30 4 21 -3 32 0 36 12 4 12
10 13 24 6 10 -6 34 -10 52 -10 l33 0 -29 15 c-15 8 -41 15 -57 15 -16 0 -29
4 -29 10 0 5 13 7 32 3 22 -4 29 -3 24 5 -4 7 -22 12 -39 12 -30 1 -31 1 -13
15 20 15 20 15 0 15 -24 0 -125 39 -103 40 9 0 33 -7 52 -15 20 -8 49 -15 64
-15 26 1 27 2 10 14 -12 9 -14 16 -7 21 16 10 120 13 120 3 0 -4 10 -8 23 -8
22 1 22 1 2 16 -11 8 -28 13 -37 10 -10 -2 -18 1 -19 7 0 8 -2 8 -6 0 -2 -7
-14 -13 -24 -13 -11 0 -18 4 -14 9 3 5 -5 17 -17 26 l-23 17 25 -6 c56 -15
100 -18 100 -8 0 7 -10 14 -22 16 -13 3 -32 7 -43 9 -12 3 -7 5 13 6 36 1 40
8 15 27 -10 7 -13 14 -7 14 6 0 10 13 9 29 -1 26 1 29 27 27 37 -3 35 8 -7 34
-19 12 -35 24 -35 26 0 7 46 -3 67 -14 10 -5 37 -13 60 -17 23 -3 44 -13 47
-20 5 -14 71 -15 81 -1 3 3 2 4 -1 2 -7 -5 -23 7 -59 44 -31 30 -23 41 8 12
15 -14 34 -21 53 -20 31 2 49 18 32 29 -6 4 -8 12 -4 18 7 11 90 -37 131 -77z
m-771 -1487 c-22 -17 -15 -19 20 -5 26 9 38 -3 14 -13 -7 -3 -3 -6 10 -6 21
-1 33 -21 12 -21 -5 0 -10 -4 -10 -9 0 -5 10 -7 23 -3 42 11 0 -24 -45 -37
-61 -18 -103 -38 -184 -88 -73 -44 -84 -49 -84 -35 0 5 38 28 85 53 47 24 85
46 85 50 0 10 -139 -48 -156 -66 -17 -17 -54 -20 -54 -5 0 6 7 13 15 16 8 4
15 12 15 19 0 6 26 26 58 44 41 23 49 30 27 25 -16 -4 -44 -15 -61 -25 -33
-20 -79 -25 -88 -10 -3 5 6 9 22 8 35 -1 94 22 86 34 -8 13 82 49 138 56 26 3
45 9 43 14 -6 8 11 17 34 18 10 1 9 -4 -5 -14z m979 -3364 c-11 -8 -113 -150
-113 -157 0 -3 20 18 46 48 25 29 47 51 49 48 2 -3 15 6 29 19 24 22 26 23 26
5 -2 -52 -98 -212 -121 -199 -5 4 -5 13 1 25 9 16 8 18 -6 13 -9 -3 5 22 31
56 27 33 46 64 43 67 -3 3 -19 -12 -34 -33 -34 -44 -54 -62 -71 -63 -13 0 -13
34 0 46 4 4 7 14 7 21 0 19 68 107 88 114 19 7 39 0 25 -10z m2028 -77 c6 -8
18 -14 25 -14 10 0 14 -13 14 -42 0 -45 19 -93 21 -53 l0 20 9 -20 c8 -19 9
-19 9 3 1 12 8 33 16 46 8 13 14 33 13 46 -2 12 3 25 10 27 7 3 12 -5 12 -22
0 -14 5 -35 11 -46 10 -20 11 -20 30 -3 20 18 23 13 13 -24 -4 -15 -12 -21
-21 -18 -12 5 -14 -1 -9 -31 8 -45 -5 -125 -19 -121 -5 2 -9 17 -8 33 l2 30
-11 -27 c-7 -16 -15 -28 -19 -28 -5 0 -11 -16 -15 -35 -3 -19 -10 -38 -15 -41
-12 -7 -11 11 2 57 10 32 9 40 -5 54 -14 15 -16 15 -16 1 0 -9 4 -16 9 -16 5
0 7 -9 4 -20 -7 -26 -43 -27 -43 -1 0 11 4 22 9 26 8 4 8 103 1 113 -5 5 -8
23 -9 55 -1 20 -4 27 -9 19 -7 -9 -14 -8 -32 8 -13 11 -27 20 -32 20 -4 0 -8
6 -8 14 0 17 44 10 61 -10z m-1903 -19 c15 4 30 12 34 18 4 7 5 -8 2 -33 -8
-57 -8 -59 1 -95 5 -24 4 -27 -5 -15 -10 13 -11 12 -7 -6 3 -17 -1 -20 -24
-20 -19 0 -28 5 -27 15 1 9 0 24 0 35 -2 15 -5 16 -17 6 -8 -7 -15 -21 -15
-31 0 -11 -7 -19 -15 -19 -7 0 -19 -8 -25 -17 -11 -17 -11 -17 -6 0 3 9 1 17
-4 17 -6 0 9 39 33 86 23 48 43 78 45 69 3 -13 10 -15 30 -10z m2262 -67 c0
-31 3 -39 10 -28 5 8 7 23 4 34 -4 11 -2 16 4 12 6 -4 10 -39 10 -84 -1 -63
-7 -89 -32 -144 -16 -38 -33 -68 -36 -68 -3 0 -6 24 -7 53 -2 28 -5 67 -8 85
-5 24 -3 32 5 27 8 -5 9 3 5 28 -4 21 -3 37 4 41 7 5 11 -3 11 -21 0 -19 3
-24 9 -15 5 8 7 38 5 68 -3 32 0 54 6 54 5 0 10 -19 10 -42z m-15 -966 c0 -13
5 -26 11 -30 10 -6 44 -95 44 -114 0 -4 -6 -7 -12 -5 -7 1 -12 -4 -10 -12 2
-10 -5 -12 -23 -9 -14 3 -28 1 -31 -4 -7 -11 31 -50 39 -41 3 2 3 -10 0 -29
-3 -18 -11 -37 -19 -41 -18 -10 -18 -46 -1 -53 9 -3 12 -16 9 -34 -4 -25 -9
-30 -33 -30 -31 0 -32 3 -29 64 1 21 -3 42 -8 45 -6 3 -13 22 -17 43 -6 30 -3
40 16 59 23 23 34 65 19 74 -4 2 -2 34 5 70 6 36 9 68 6 71 -3 3 3 4 14 2 13
-2 20 -11 20 -26z m-259 -27 l28 -14 -37 -16 c-20 -8 -37 -18 -37 -21 0 -3 4
-3 9 0 5 3 14 0 20 -8 9 -10 7 -21 -6 -45 -10 -17 -22 -31 -28 -31 -5 0 -3 -5
5 -10 9 -6 11 -13 5 -17 -17 -13 -35 -51 -35 -73 0 -14 -11 -26 -32 -35 -18
-8 -28 -14 -21 -15 28 -1 25 -70 -3 -70 -9 0 -14 -12 -14 -34 0 -39 -19 -59
-52 -54 -21 3 -23 7 -19 58 4 64 32 113 59 103 15 -6 15 -5 3 10 -12 15 -11
23 4 60 10 23 29 53 41 67 12 14 27 42 32 63 11 38 10 38 -16 35 -19 -2 -27 2
-27 12 0 8 9 15 20 16 31 2 65 14 65 25 0 12 3 12 36 -6z m254 -405 c0 -11 -5
-20 -11 -20 -5 0 -7 -5 -4 -11 4 -6 14 -8 22 -5 16 7 47 -12 50 -31 2 -7 6
-45 9 -84 5 -54 4 -70 -4 -65 -7 4 -12 3 -12 -1 0 -5 10 -13 23 -18 12 -6 22
-14 22 -20 0 -5 7 -29 14 -53 13 -38 13 -45 0 -53 -23 -15 -58 -22 -83 -15
-20 5 -24 14 -29 58 -4 30 -3 54 3 56 5 2 1 18 -9 35 -17 31 -21 59 -24 172
-2 34 2 49 10 48 7 -2 10 4 7 12 -4 8 -1 15 5 15 6 0 11 -9 11 -20z m-2925
-464 c12 -12 11 -16 -5 -31 -22 -20 -28 -44 -7 -27 23 19 57 3 57 -27 0 -15 4
-31 9 -36 5 -6 11 -21 13 -35 2 -18 -3 -28 -20 -35 -12 -5 -25 -18 -28 -27 -3
-10 -9 -18 -14 -18 -12 0 -24 46 -17 64 6 16 -24 44 -41 38 -18 -6 -15 55 3
62 26 10 18 34 -10 28 -20 -3 -25 0 -25 17 0 34 60 53 85 27z m-712 -178 c9
-32 -44 -80 -86 -78 -50 3 -55 1 -62 -19 -9 -28 -40 -35 -69 -16 -21 14 -24
21 -15 36 6 12 20 19 39 19 18 0 39 9 52 23 58 59 130 77 141 35z m721 -218
c-2 -8 5 -21 15 -27 16 -10 20 -9 25 4 5 12 9 13 21 3 21 -18 19 -29 -10 -40
-26 -10 -25 -40 1 -40 8 0 20 -15 27 -33 8 -18 36 -59 62 -91 26 -32 41 -55
34 -50 -109 65 -144 97 -162 147 -4 9 -18 22 -32 27 -24 9 -29 18 -26 51 1 9
-6 19 -15 23 -9 4 -14 12 -10 22 3 8 2 12 -4 9 -6 -3 -10 -1 -10 5 0 6 7 13
15 16 9 4 13 14 11 23 -7 21 4 38 29 43 17 3 21 -3 27 -37 3 -22 4 -47 2 -55z
m-442 -223 c-18 -10 -20 -15 -10 -25 8 -8 14 -44 15 -90 1 -42 2 -79 3 -82 1
-3 1 -13 0 -24 -1 -10 7 -28 19 -40 41 -44 52 -107 24 -138 -15 -17 -15 -19
-1 -31 23 -17 27 -50 8 -64 -13 -11 -13 -12 0 -13 8 -1 24 -3 35 -5 10 -2 25
1 32 7 7 6 13 7 13 4 0 -11 -27 -36 -39 -36 -6 0 -11 -6 -11 -12 0 -7 -7 -21
-15 -32 -12 -16 -16 -16 -28 -5 -7 8 -13 28 -13 44 1 24 -4 31 -21 33 -25 4
-38 32 -28 63 5 14 0 27 -14 40 -17 16 -21 32 -21 82 0 34 -4 68 -9 75 -4 7
-5 33 -1 58 5 30 3 50 -6 62 -7 9 -14 35 -14 57 0 48 31 84 75 84 29 0 30 0 7
-12z"/>
<path d="M7680 8086 c0 -8 -17 -23 -37 -33 -24 -12 -39 -28 -41 -42 -2 -12 -9
-20 -15 -18 -7 3 -11 9 -10 15 2 6 -6 16 -17 22 -15 8 -20 8 -20 -1 0 -6 -6
-9 -14 -6 -8 3 -17 -1 -20 -9 -9 -24 -7 -27 14 -21 12 3 18 1 14 -5 -4 -5 -19
-7 -35 -4 -22 4 -27 2 -22 -9 3 -9 -1 -15 -11 -15 -18 0 -22 -35 -6 -45 6 -3
7 1 4 9 -5 12 0 16 20 16 19 0 26 -5 26 -20 0 -16 7 -20 34 -20 19 0 38 -4 41
-10 3 -5 3 -10 -2 -10 -4 0 -14 -13 -21 -30 -8 -16 -20 -30 -28 -30 -8 0 -14
-4 -14 -10 0 -5 -7 -10 -15 -10 -8 0 -15 5 -15 10 0 6 4 10 10 10 5 0 8 10 6
23 -4 27 -43 36 -52 12 -5 -11 -10 -13 -19 -5 -10 8 -21 7 -43 -4 -16 -8 -31
-13 -34 -11 -11 12 -1 -44 11 -59 10 -12 11 -20 3 -28 -6 -6 -8 -16 -6 -23 3
-7 1 -16 -5 -20 -6 -3 -9 0 -5 8 3 10 -4 17 -20 21 -28 7 -33 25 -14 44 17 17
-4 15 -30 -4 -26 -18 -30 -54 -6 -54 10 0 14 -6 11 -14 -3 -7 0 -19 6 -25 8
-8 8 -11 -1 -11 -6 0 -9 -6 -6 -13 3 -8 -2 -20 -11 -27 -8 -7 -15 -20 -15 -29
0 -9 -5 -22 -11 -28 -5 -5 -11 -22 -13 -36 -1 -14 -13 -35 -27 -46 -22 -19
-23 -20 -4 -21 23 0 69 -65 59 -82 -5 -8 12 -9 62 -4 60 6 101 25 74 34 -19 7
-11 42 10 42 11 0 20 -4 20 -10 0 -5 -6 -10 -12 -10 -10 0 -9 -3 1 -9 8 -5 11
-17 7 -32 -6 -21 -5 -21 9 4 16 28 35 36 35 15 1 -7 9 -3 19 10 11 12 22 22
26 22 4 0 5 -10 2 -22 -6 -22 -5 -22 15 2 17 21 29 25 79 26 52 0 75 -8 51
-18 -13 -5 -52 -74 -52 -92 0 -9 8 -20 18 -23 9 -4 20 -11 24 -17 5 -7 8 -6 8
3 0 10 5 10 25 -3 25 -16 25 -16 39 16 14 33 31 108 40 181 3 25 1 35 -6 31
-11 -7 -10 -2 8 64 5 18 3 21 -10 16 -9 -3 -16 -16 -17 -28 0 -13 -5 -6 -13
19 -13 42 -10 75 6 75 19 0 65 62 61 81 -11 42 -89 23 -101 -25 -10 -38 -47
-45 -46 -8 0 12 -5 22 -12 22 -7 0 -25 5 -40 10 -25 10 -26 12 -10 29 9 9 16
22 16 28 0 6 7 16 15 23 9 7 14 19 11 27 -3 8 1 16 9 19 8 4 13 9 11 13 -3 4
-1 13 3 20 11 17 71 5 71 -15 0 -8 7 -14 15 -14 8 0 15 -4 15 -10 0 -5 5 -10
11 -10 5 0 7 5 3 11 -4 7 -8 40 -9 75 -3 70 -10 88 -31 80 -8 -3 -14 1 -14 8
0 8 -7 16 -15 20 -8 3 -12 12 -9 21 3 8 1 15 -5 15 -6 0 -11 -6 -11 -14z"/>
<path d="M6225 7109 c-5 -5 -26 -20 -45 -34 -19 -13 -45 -32 -58 -41 -35 -26
-41 -6 -7 22 l30 25 -30 -7 c-16 -4 -41 -12 -55 -19 -74 -38 -130 -65 -136
-65 -3 0 -4 7 0 15 3 9 -24 0 -77 -27 -74 -37 -80 -42 -57 -49 45 -13 80 -10
80 6 0 8 3 15 8 16 4 0 18 3 32 7 14 3 41 6 62 6 20 1 34 4 32 7 -6 10 83 32
95 24 6 -3 11 0 11 7 0 7 22 26 48 41 67 40 96 63 86 69 -5 3 -13 2 -19 -3z"/>
<path d="M7377 6243 c1 -54 2 -100 3 -102 0 -2 7 2 15 9 17 14 17 14 33 -15 8
-14 12 -16 12 -5 1 18 29 -28 30 -48 0 -7 7 -20 15 -28 13 -14 15 -14 15 0 0
9 6 13 14 10 8 -3 13 -16 11 -30 -3 -28 10 -32 20 -6 7 16 8 16 14 -2 7 -17
10 -15 30 17 23 37 26 54 23 120 -1 23 -6 36 -12 32 -5 -3 -10 2 -10 12 -1 16
-2 16 -12 -2 -12 -19 -12 -19 -19 5 l-6 25 -11 -25 c-6 -14 -12 -19 -13 -12
-3 23 -5 27 -28 67 -21 39 -22 37 -6 -13 5 -19 3 -23 -12 -20 -13 2 -17 -2
-15 -17 2 -19 2 -19 -9 -2 -10 18 -11 18 -24 1 -12 -17 -13 -16 -19 4 -4 12
-9 40 -11 62 -3 23 -7 45 -10 50 -15 25 -20 3 -18 -87z"/>
<path d="M7240 6170 c0 -11 5 -20 11 -20 5 0 7 -5 4 -10 -3 -6 -10 -41 -14
-79 -6 -58 -5 -68 7 -63 17 6 16 6 -18 -63 -14 -28 -28 -51 -32 -53 -5 -2 -8
-13 -8 -25 -1 -14 -7 -5 -19 24 -10 25 -16 59 -14 75 3 16 -5 61 -16 99 l-21
70 4 -53 c3 -30 0 -50 -5 -46 -8 5 -13 -9 -10 -28 0 -5 -3 -8 -9 -8 -5 0 -7
-7 -4 -15 4 -8 -1 -17 -10 -21 -9 -3 -13 -10 -10 -15 3 -5 10 -7 15 -4 5 4 9
-3 9 -15 0 -13 -4 -19 -12 -14 -7 4 -8 3 -4 -5 4 -6 11 -9 16 -6 10 6 21 -21
14 -39 -4 -10 1 -12 19 -9 21 4 25 0 30 -34 4 -21 4 -49 1 -63 -5 -24 -5 -24
10 -6 9 11 18 17 22 14 8 -8 -46 -158 -57 -158 -11 0 -11 -2 0 37 6 19 6 35 1
38 -5 3 -12 -6 -16 -20 -5 -20 -11 -24 -27 -19 -27 9 -47 29 -47 48 0 8 -4 18
-10 21 -6 4 -10 -10 -10 -34 0 -32 -3 -39 -15 -35 -17 7 -20 -13 -6 -35 5 -8
6 -24 1 -35 -10 -27 10 -49 28 -30 16 17 15 34 0 34 -9 0 -10 3 -2 8 6 4 17
18 23 30 19 36 26 18 22 -58 -1 -41 2 -70 8 -74 6 -4 11 -16 11 -27 0 -10 6
-19 13 -19 8 0 9 -3 1 -8 -6 -4 -14 -20 -18 -37 -6 -27 -5 -28 7 -12 21 25 30
21 22 -10 -6 -27 -6 -27 14 -9 18 16 21 17 21 3 0 -8 -4 -17 -9 -19 -4 -1 -12
-14 -16 -28 l-7 -25 17 23 c18 25 37 30 29 7 -4 -8 -2 -15 4 -15 17 0 23 32 9
44 -13 10 -47 116 -47 144 0 28 20 9 30 -28 6 -22 15 -40 20 -40 6 0 3 17 -4
38 -17 45 -27 140 -15 148 5 3 9 18 9 35 0 16 4 29 9 29 5 0 15 16 21 35 12
36 36 50 26 15 -3 -11 -9 -30 -12 -41 -4 -14 -2 -19 5 -15 6 4 11 13 11 20 0
8 7 20 16 27 15 12 16 10 9 -21 -4 -19 -13 -49 -20 -67 -11 -26 -11 -35 1 -50
7 -10 14 -13 14 -6 0 7 7 10 15 7 10 -4 15 0 16 12 3 43 7 62 19 98 18 57 23
36 10 -44 -11 -63 -10 -74 4 -88 15 -15 16 -14 16 15 0 18 5 35 10 38 6 3 10
16 10 28 0 14 3 18 10 11 7 -7 8 -19 1 -36 -12 -32 -10 -40 21 -107 14 -29 28
-49 31 -44 8 13 -9 75 -23 83 -10 6 -1 36 36 118 21 44 8 54 -22 18 -30 -35
-42 -29 -14 7 11 14 20 28 20 31 0 4 10 27 21 51 23 49 21 73 -2 27 -8 -15
-22 -36 -31 -46 -10 -11 -18 -24 -18 -28 0 -5 -4 -7 -9 -4 -11 7 23 76 45 93
19 14 33 76 34 145 0 27 5 48 13 51 7 3 5 6 -5 6 -11 1 -18 -6 -18 -16 0 -23
-40 -103 -51 -103 -5 0 -9 29 -9 64 0 54 -3 64 -17 62 -13 -1 -19 9 -23 34 -3
20 -11 34 -18 33 -7 -2 -12 3 -13 10 0 6 -4 2 -9 -10 -14 -34 -30 -27 -30 12
0 32 -23 95 -35 95 -3 0 -5 -9 -5 -20z"/>
<path d="M9822 5633 c9 -10 20 -31 23 -48 4 -16 15 -36 24 -44 14 -11 13 -12
-9 -6 -25 8 -89 51 -102 70 -4 5 -10 7 -13 3 -3 -3 2 -14 12 -23 9 -10 17 -27
18 -39 0 -14 6 -21 18 -19 10 0 16 -1 13 -5 -3 -3 2 -11 12 -19 15 -13 15 -13
-5 -4 -30 15 -34 2 -12 -34 11 -16 19 -25 19 -18 0 7 7 10 15 6 17 -6 14 -29
-3 -26 -6 1 -7 -7 -4 -19 5 -19 6 -19 11 -5 6 16 8 15 24 -3 21 -25 22 -60 2
-60 -8 0 -15 -4 -15 -10 0 -5 7 -10 15 -10 8 0 15 5 15 10 0 6 5 10 10 10 6 0
10 -7 10 -15 0 -9 -9 -15 -24 -15 -23 0 -24 -2 -16 -31 13 -43 24 -52 17 -12
-5 26 -3 31 11 28 9 -2 19 -4 22 -4 3 -1 -1 -5 -8 -10 -10 -6 -7 -10 12 -13
27 -5 30 7 8 31 -8 9 -12 25 -8 42 4 22 2 27 -9 22 -9 -3 -15 1 -15 11 0 9 4
16 8 16 5 0 7 15 5 33 -3 17 -1 28 4 22 4 -5 19 -16 33 -24 23 -13 24 -13 11
3 -8 9 -11 19 -8 22 7 8 50 -16 60 -32 4 -8 18 -19 30 -25 19 -10 18 -7 -6 18
-15 17 -27 34 -26 39 4 25 -5 34 -43 44 -23 7 -36 15 -30 19 13 8 5 22 -28 44
-13 9 -19 17 -13 17 7 0 15 -5 18 -10 4 -6 15 -8 25 -5 11 4 20 -1 24 -11 5
-14 9 -15 19 -5 9 10 6 18 -16 37 -16 13 -26 28 -22 33 3 5 1 12 -5 16 -5 3
-14 -5 -20 -19 -12 -33 -26 -33 -42 1 -7 14 -24 30 -37 35 -23 8 -24 8 -9 -9z"/>
</g>
</svg>
