<?xml version="1.0" standalone="no"?>
<!DOCTYPE svg PUBLIC "-//W3C//DTD SVG 20010904//EN"
 "http://www.w3.org/TR/2001/REC-SVG-20010904/DTD/svg10.dtd">
<svg version="1.0" xmlns="http://www.w3.org/2000/svg"
 width="360.000000pt" height="362.000000pt" viewBox="0 0 360.000000 362.000000"
 preserveAspectRatio="xMidYMid meet">
<metadata>
Created by potrace 1.15, written by Peter Selinger 2001-2017
</metadata>
<g transform="translate(0.000000,362.000000) scale(0.100000,-0.100000)"
fill="#000000" stroke="none">
<path d="M1600 2298 c0 -1187 -1 -1205 -59 -1323 -17 -35 -48 -78 -68 -96
-120 -105 -338 -133 -492 -64 -136 61 -206 194 -229 433 -5 51 -11 95 -13 97
-5 4 -339 -41 -343 -47 -8 -9 14 -253 28 -313 80 -344 312 -530 688 -552 352
-20 627 112 770 371 15 29 28 43 28 33 0 -18 18 -18 413 -15 385 4 417 6 492
26 230 63 373 196 464 432 52 133 66 225 66 420 -1 176 -8 233 -46 359 -58
193 -186 352 -345 431 -123 60 -204 70 -606 70 l-358 0 0 405 0 405 -195 0
-195 0 0 -1072z m386 -105 c-3 -192 -9 -574 -12 -850 -4 -324 -10 -503 -16
-503 -7 0 -8 119 -4 348 3 191 9 573 12 850 4 323 10 502 16 502 7 0 8 -119 4
-347z m739 147 c177 -34 313 -181 360 -390 34 -153 29 -386 -11 -545 -37 -144
-124 -264 -227 -316 -99 -50 -163 -59 -449 -59 l-258 0 0 667 0 666 263 -6
c144 -3 289 -11 322 -17z"/>
</g>
</svg>
